<svg xmlns="http://www.w3.org/2000/svg" width="302" height="287.324"><path d="M227.288 214.642H77.038V0h150.25v214.642z" fill="#ee293d"/><path d="M151.255 64.792c-9.64 0-18.918 1.592-27.57 4.534l-10.43-17.94c-.056-.152-.143-.345-.047-.508.112-.184.106-.26.694-.26.588-.002 4.286.163 4.527.185.334.04.596.18.632.696.04.523.13 3.242.13 3.447-.015.534.702.853.977.076.324-.917.897-2.373.987-2.653.205-.633.576-.455 1.33-.013l2.79 1.55c.16.087.224.214.088.847-.126.648-.533 2.936-.61 3.237-.09.31-.122.502-.75.372-.63-.124-2.49-.564-2.688-.564-.208.013-.67.024-.567.606.715 1.577 2.406 2.77 4.004 3.24 2.694.808 5.486-.135 7.192-2.342.904-1.287 1.338-2.803 1.28-4.443-.02-.275-.062-.582-.334-.733-.117-.042-.27-.075-.374.042-.406.454-.596 1.042-1.055 1.482-.584.546-1.46.71-2.24.515-1.47-.524-1.97-2.095-1.986-3.57.045-.846.347-1.638 1.082-2.154.602-.46 1.615-.51 2.266-.126.573.235.995.823 1.646.832.24.005.534-.37.226-.746-.49-.615-2.31-2.258-2.496-4.567-.153-2.077.6-3.9 1.737-4.9.095-.098.222-.19.51-.095 1.755.594 3.35 2.66 3.645 4.69.293 2.04-.548 3.922-.672 4.215-.117.295.027.678.29.738.247.025.428-.123.578-.322.547-.754 1.126-1.82 2.157-1.902.97-.126 1.793.335 2.348 1.128.627 1.022.96 2.538.416 3.723-.334.797-1.154 1.3-1.98 1.318-.95.106-1.585-.567-2.3-1.034-.138-.093-.32-.048-.434.04-.298.304-.075.762.033 1.08.92 2.304 3.243 4.158 5.77 4.213 2.902.18 5.593-1.43 6.85-4.034.332-.77.645-1.582.597-2.505 0-.144-.117-.298-.265-.37-.585-.11-.968.43-1.414.708l-1.823 1.37a.466.466 0 0 1-.362.026c-.883-1.004-1.682-2.104-2.463-3.174-.075-.124-.108-.305-.024-.43.693-1.087 1.474-2.115 2.255-3.158.11-.153.26-.292.453-.21 1.09.7 2.09 1.585 3.213 2.17.154.072.844-.097.52-.727-.327-.633-1.48-2.278-1.692-2.66-.22-.384-.49-.646-.1-.92.39-.266 3.216-2.228 3.31-2.307a.274.274 0 0 1 .295 0c.087.073 2.917 2.04 3.306 2.306.383.275.12.537-.093.92-.214.383-1.37 2.028-1.695 2.66-.334.63.365.8.516.728 1.124-.585 2.128-1.47 3.207-2.17.19-.082.35.057.462.21.78 1.043 1.56 2.07 2.252 3.157.082.126.057.307-.02.43-.782 1.07-1.58 2.17-2.47 3.175-.114.048-.262.02-.365-.027l-1.812-1.37c-.45-.276-.838-.816-1.42-.707-.145.072-.262.226-.262.37-.05.923.262 1.734.594 2.505a7.115 7.115 0 0 0 6.854 4.034c2.514-.055 4.853-1.91 5.77-4.212.11-.32.325-.777.03-1.082-.12-.087-.293-.132-.437-.04-.706.468-1.345 1.14-2.29 1.035-.836-.018-1.662-.52-1.994-1.317-.542-1.184-.205-2.7.425-3.722.546-.793 1.366-1.254 2.35-1.127 1.023.082 1.614 1.15 2.145 1.903.16.2.33.346.588.322.263-.06.408-.443.287-.738-.127-.293-.968-2.176-.67-4.214.3-2.032 1.88-4.097 3.645-4.69.28-.097.404-.003.51.093 1.13 1 1.887 2.824 1.727 4.9-.173 2.31-1.988 3.953-2.49 4.568-.3.377-.016.75.228.745.65-.01 1.067-.598 1.64-.833.654-.383 1.67-.335 2.267.126.74.516 1.043 1.308 1.082 2.155-.013 1.474-.516 3.045-1.987 3.57-.772.195-1.655.03-2.236-.516-.462-.44-.655-1.028-1.06-1.483-.1-.12-.243-.086-.37-.043-.267.15-.307.458-.34.732-.05 1.64.377 3.155 1.284 4.442 1.712 2.207 4.5 3.15 7.2 2.343 1.602-.47 3.278-1.664 4.005-3.24.102-.583-.365-.595-.57-.607-.196 0-2.068.44-2.686.564-.63.13-.663-.063-.748-.37-.084-.302-.486-2.59-.62-3.238-.137-.633-.074-.76.095-.847l2.79-1.55c.75-.443 1.122-.62 1.32.013.098.28.662 1.736.996 2.653.278.777.987.458.984-.076 0-.205.075-2.924.117-3.448.046-.517.303-.658.643-.697.242-.022 3.93-.187 4.52-.184.602 0 .59.074.69.258.095.163.02.356-.046.51l-10.423 17.938c-8.654-2.942-17.924-4.534-27.58-4.534" fill="#fcd213"/><path d="M151.255 31.458a4.744 4.744 0 0 1 0 9.49 4.743 4.743 0 0 1-4.738-4.74 4.748 4.748 0 0 1 4.738-4.75M114.3 39.256c2.1 0 3.798 1.7 3.798 3.798a3.796 3.796 0 1 1-3.798-3.798M118.842 29.603c2.098 0 3.8 1.697 3.8 3.798a3.797 3.797 0 0 1-3.8 3.793 3.796 3.796 0 0 1 0-7.59M129.634 26.383a3.797 3.797 0 1 1 .008 7.592 3.797 3.797 0 0 1-.008-7.592M140.234 31.113a3.8 3.8 0 0 1 3.8 3.802 3.8 3.8 0 0 1-3.8 3.795 3.8 3.8 0 0 1-3.795-3.795 3.8 3.8 0 0 1 3.794-3.802M188.894 39.256a3.8 3.8 0 0 0-3.805 3.798 3.798 3.798 0 0 0 7.596 0c0-2.098-1.7-3.798-3.792-3.798M184.348 29.603a3.796 3.796 0 0 0 0 7.59 3.796 3.796 0 0 0 0-7.59M173.557 26.383a3.796 3.796 0 1 0-.004 7.594 3.796 3.796 0 0 0 .004-7.594M162.96 31.113a3.8 3.8 0 0 0-3.805 3.802 3.8 3.8 0 0 0 3.804 3.795 3.8 3.8 0 0 0 3.792-3.795 3.8 3.8 0 0 0-3.793-3.802M153.922 17.61l-1.208 4.498v.03c1.256-.314 2.5-.75 3.764-1.106v5.31c-1.263-.364-2.508-.795-3.764-1.114v.024l1.24 4.654a6.724 6.724 0 0 0-2.7-.546 6.77 6.77 0 0 0-2.694.546l1.24-4.654v-.024c-1.246.32-2.485.75-3.75 1.115v-5.31c1.265.354 2.504.79 3.75 1.105v-.03l-1.2-4.498h5.322zM105.65 94.09c-.815 2.75-.496 6.054 1.34 8.296 1.603 1.94 4.114 2.83 6.686 2.222 1.69-.512 3.16-1.91 3.475-3.506.275-1.528-.26-2.996-1.563-3.933-1.167-.88-3.075-.978-4.422-.372-.823.407-1.432 1.227-1.9 1.857-1.907-.956-3.098-2.713-3.614-4.564m15.543-12.433c4.377 1.61 7.8 5.85 8.923 9.79l9.62-5.043c-4.61-4.798-11.878-6.275-18.543-4.747m23.407 2.188c1.82-.874 3.587-1.962 5.408-2.842l2.66 4.153-.228.115-26.493 13.91c-.157-4.486-1.164-8.845-4.71-12.022-2.247-1.79-5.424-2.88-8.454-1.875-1.73.636-3.584 2.14-3.77 3.916-.2 1.322.34 2.46 1.033 3.46 1.62-.67 3.63-1.143 5.54-.75 2.687.487 5.366 2.543 6.343 4.93 1.437 3.286.36 7.08-2.057 9.625-2.897 2.873-7.36 3.774-11.44 2.61-4.822-1.41-7.99-6.03-8.19-10.496-.605-8.426 5.496-16.076 13.677-19.497 6.444-2.852 15.888-3.81 22.55-.766 3 1.176 5.776 3.183 8.13 5.528M155.577 170.847c-2.025-.238-3.906.41-5.1 1.917-.913 1.215-1.158 3.17-.283 4.47.744 1.463 2.423 2.183 4.063 2.343-.564 2.755-2.502 5.08-4.555 7.16 2.843-1.204 5.785-2.554 7.868-5.137 1.98-2.328 3.345-5.81 1.594-8.567-.898-1.16-2.158-1.975-3.587-2.186m-12.072-10.963c-9.49-1.854-20.498-1.634-28.682 2.63-5.4 2.687-9.845 7.706-9.552 13.515 0 4.61 3.97 8.57 8.302 10.62-1.172-1.587-1.618-3.444-1.618-5.466-.05-2.403.847-4.317 2.2-6.255 4.326-5.177 11.418-6.874 18.342-5.406 3.024-4.118 7.735-7.696 12.648-9.278l-1.64-.362zm25.477-21.284l-.058.1c4.25 1.814 5.6 5.974 5.8 9.926v16.147l.087 5.384c.113 5.182 2.12 9.773 5.506 13.69l12.175-6.398c-3.03-4.122-4.92-8.68-5.073-13.882l-.015-9.046c-.115-2.342-.208-4.694-1.31-6.653-3.645-5.906-10.852-7.437-17.11-9.27m-12.627-16.473l-7.485 3.91v23.14l-10.12 5.242c6.132.512 12.064 2.055 17.605 3.75v-36.043zm5.504-2.78v17.556l7.604-4.057.064-7.708c-.115-1.972.262-4.157-1.06-5.688-1.614-1.854-4.842-1.164-6.61-.103m19.757-9.212c-4.22.525-7.563 3.042-11.168 4.796 2.755.98 4.476 3.606 4.476 6.256l.022 8.787.042-.03 12.528-6.563.102-4.44c-.083-2.3.302-4.783-.937-6.682-1.164-1.553-3.027-2.303-5.064-2.123m-38.156 36.16v-46.33l-12.108 6.43-.242.08v18.075c-3 .082-6.01-.247-8.636.61-2.423.777-4.533 3.08-4.78 5.36h13.416v22.2l12.35-6.424zm12.896-29.796V93.182l-7.485 3.906v23.32l7.486-3.91zm24.582-34.925c-3.943.403-7.096 2.586-10.415 4.26 4.555 1.608 4.736 6.242 4.606 10.18l11.68-6.136c-.058-2.138.32-4.477-.917-6.232-1.115-1.525-2.942-2.18-4.955-2.073m10.206.44c1.592 3.08.91 7.05 1.028 10.6l-1.607.845-20.877 10.945v.003-10.743c-.115-1.387-.32-2.795-1.646-3.735-1.71-1.263-4.527-.49-6.182.346v23.453-.063l12.952-6.59c3.862-1.917 9.182-2.79 13.146-.488 3.952 2.08 5.154 5.97 5.025 9.99l-.132 9.588-17.45 9.16-.087.03c5.987 1.957 12.673 4.67 15.762 10.48 3.03 5.868 1.007 13.78 2.083 20.225.5 3.26 2.017 6.213 4.184 8.84l.175-.09 5.257-2.764 2.647 4.208-18.5 9.716-8.276 4.343c-4.89-5.652-9.03-11.674-9.212-19.138l-.13-6.137.085-14.758c-.178-2.918-.272-6-3.16-7.753-1.28-.75-3.07-.75-4.367-.118v18.938c-8.742.187-17.122 2.267-23.018 8.58-1.64 1.696-2.978 3.496-4.2 5.323-3.688-1.687-9.096-2.04-12.816-.14-3.01 1.515-5.025 4.346-4.518 7.544.476 3.427 4.362 6.056 7.81 6.752 8.006 1.408 17.155 0 21.845-6.622l.693-1.25c-2.773-1.958-3.858-4.993-3.23-8.134.632-3.4 4.234-6.586 7.963-7.168 3.945-.745 7.824.38 10.45 3.21 2.667 2.674 3.19 7.135 1.71 10.487-3.528 8.092-13.105 11.72-21.533 13.485-10.61 2.152-22.065 1.46-31.51-2.46-5.967-2.57-11.327-8.015-11.737-14.104-.69-7.607 4.172-14.094 11.22-17.952 4.422-2.424 9.447-3.892 14.698-4.528v-18.957h-14.68c-.045-5.803 2.405-11.84 8.594-14.433 1.91-.693 3.93-1.12 6.086-1.18V103.656l8.714-4.455 27.86-14.626 11.387-5.97c3.7-1.9 9.358-2.95 13.274-.707 1.773.877 3.46 2.45 4.22 4.114" fill="#fcd213"/><path d="M102.634 286.324c-4.184-.92-6.514-3.258-8.19-5.51-.75-1.016-11.665-17.56-15.234-22.966v20.428c0 2.957-.05 5.06 2.408 6.7v.158h-8.244v-.157c2.454-1.64 2.454-3.744 2.454-6.7V256.59c0-2.95-.62-4.44-3.03-6.028v-.154h8.672v.052l17.83 27.225v-20.473c0-2.95.045-5.06-2.41-6.65v-.154h8.153v.154c-2.41 1.59-2.41 3.7-2.41 6.65v29.112M39.212 267.65c0 7.857 3.876 15.007 10.924 15.007 6.484 0 10.484-6.773 10.484-15.008 0-8.453-4.067-15.248-10.568-15.248-6.617 0-10.84 6.575-10.84 15.247m27.666-.35c0 10.733-7.814 18.522-17.016 18.522-9.155 0-16.878-7.475-16.878-18.267 0-9.998 7.633-18.363 17.34-18.098 9.708-.054 16.554 8.36 16.554 17.842M134.438 282.18v-8.356c0-2.43-.304-4.793-2.68-5.743v-.155h8.38V284.6c-2.634.675-7.876 1.44-10.245 1.38-1.484-.036-18.03.016-17.94-17.87.083-16.297 13.722-18.226 16.848-18.326 3-.09 7.31.353 10.157 1.712v6.632h-.16c-2.204-3.23-4.645-5.492-9.57-5.492-3.52 0-10.994 3.307-10.994 15.617 0 2.88.618 10.798 7.17 13.715 1.252.555 5.68 1.84 9.035.21M295.3 282.18v-8.356c0-2.43-.305-4.793-2.68-5.743v-.155H301V284.6c-2.635.675-7.877 1.44-10.246 1.38-1.49-.036-18.032.016-17.938-17.87.084-16.297 13.724-18.226 16.84-18.326 3.003-.09 7.317.353 10.16 1.712v6.632h-.158c-2.206-3.23-4.642-5.492-9.57-5.492-3.524 0-10.99 3.307-10.99 15.617 0 2.88.615 10.798 7.168 13.715 1.25.555 5.682 1.84 9.034.21M149.053 276.092c2.053 3.674 5.758 6.93 9.336 6.632 3.628-.305 6.045-2.888 6.045-6.753 0-7.66-14.878-6.23-14.755-16.918.094-7.626 6.912-9.718 11.458-9.718 1.956 0 5.02.452 6.918 1.208l-.217 6.303-.06.034c-2.74-3.998-4.53-4.776-7.417-4.776-2.616 0-5.3 2.25-5.3 5.28 0 8.055 14.986 5.84 14.986 17.897 0 6.657-5.858 10.443-12.255 10.443-1.034 0-5.25-.383-8.036-1.785l-.776-7.816.07-.03zM185.34 253.478v28.72c4.526.857 12.284.125 12.18-7.517-.06-4.17-3.02-7.3-10.2-7.315l1.026-2.592c2.294-.545 6.57-1.4 6.57-6.556 0-4.473-5.855-5.947-9.575-4.74m18.268 21.298c0 4.07-2.348 7.035-5.896 8.732-3.705 1.803-7.892 1.64-11.862 1.64h-8.422v-.163c2.647-1.003 2.33-4.868 2.33-7.297v-19.934c0-2.385.37-6.25-2.33-7.256v-.154h12.112c6.99 0 11.32 2.807 11.32 7.512 0 3.55-2.31 5.78-7.362 7.593 3.54.62 10.11 2.213 10.11 9.327M232.092 256.42h-.147c-1.212-1.572-2.583-4.378-12.696-3.06v10.993h9.955v5.272h-.154c-.843-1.532-3.064-2.382-4.698-2.382h-5.103v14.846c12.755 1.52 14.742-3.464 15.67-4.71h.272l-2.394 7.693H210.92v-.153c2.71-1.405 2.686-4.296 2.686-6.665v-21.01c0-2.42 0-5.71-2.686-6.713v-.157h21.173v6.044zM271.865 285.074h-4.76c-1.775-.09-4.09-.024-6.945-3.54-2.854-3.516-9.338-13.02-9.338-13.02l1.302-2.427c3.394-.892 6.433-2.79 6.433-7.304 0-3.415-3.005-5.474-6.54-5.603-1.264-.055-2.018-.064-3.23.147v24.365c.112 2.67-.458 6.276 2.237 7.23v.152h-10.29v-.153c2.68-1.283 2.154-4.668 2.317-7.228V257.56c-.162-2.63.37-6.023-2.317-7.027v-.157h12.552c7.723 0 11.132 3.69 11.132 8.483 0 4.644-3.627 7.12-8.04 8.342 4.043 5.538 11.096 16.157 15.48 17.788l.014.085zM32.345 284.926v.16h-5.432c-2.583 0-4.65-1.1-6.372-3.458l-10.164-15.144 8.585-9.245c2.642-2.835 3.688-5.545.025-6.735v-.157h10.002v.054l-13.218 14.43c4.053 5.703 11.667 18.068 16.575 20.094" fill="#15366f"/><path d="M3.378 257.74c0-2.378.314-6.233-2.378-7.237v-.157h10.387v.157c-2.69.956-2.375 4.86-2.375 7.238v19.9c0 2.428-.316 6.29 2.375 7.287v.16H1v-.16c2.692-.998 2.378-4.907 2.378-7.286v-19.9z" fill="#15366f"/></svg>