<svg xmlns="http://www.w3.org/2000/svg" width="203.333" height="209.333" viewBox="0 0 203.333 209.333"><path fill="#F3BB37" d="M145.672 128.822c-4.625-2.15-7.183-2.357-9.954-1.21l-91.95 41.113c-2.834 1.337-4.81 3.382-4.81 9.362v12.27l120.235-54.675c.062-.024.108-.046.165-.072 0 0-9.86-5.006-13.686-6.788z"/><path fill="#F09B36" d="M164.38 132.19l-.02-14.27c0-3.126-1.872-6-4.874-7.49L47.134 54.77v14.232c0 3.127 1.872 6 4.872 7.49L164.38 132.19z"/><path fill="#D5562B" d="M164.354 106.562l-120.53-60.05c-3-1.487-4.87-4.362-4.87-7.49V24.76l120.532 59.85c3.002 1.488 4.868 4.36 4.868 7.488v14.464"/><path fill="#B55232" d="M159.588 58.843L79.18 18.977V32.94c0 3.06 1.83 5.873 4.766 7.327l80.41 40.028c.006-2.857 0-7.808 0-14.122-.002-3.058-1.83-5.873-4.768-7.33"/></svg>