<?xml version="1.0" encoding="UTF-8" standalone="no"?>
<svg
   xmlns:dc="http://purl.org/dc/elements/1.1/"
   xmlns:cc="http://creativecommons.org/ns#"
   xmlns:rdf="http://www.w3.org/1999/02/22-rdf-syntax-ns#"
   xmlns:svg="http://www.w3.org/2000/svg"
   xmlns="http://www.w3.org/2000/svg"
   viewBox="0 0 413.33334 394.66666"
   height="394.66666"
   width="413.33334"
   xml:space="preserve"
   id="svg2"
   version="1.1"><metadata
     id="metadata8"><rdf:RDF><cc:Work
         rdf:about=""><dc:format>image/svg+xml</dc:format><dc:type
           rdf:resource="http://purl.org/dc/dcmitype/StillImage" /></cc:Work></rdf:RDF></metadata><defs
     id="defs6" /><g
     transform="matrix(1.3333333,0,0,-1.3333333,0,394.66667)"
     id="g10"><g
       transform="scale(0.1)"
       id="g12"><path
         id="path14"
         style="fill:#ee293d;fill-opacity:1;fill-rule:evenodd;stroke:none"
         d="m 787.172,743.004 h 1549.14 v 2213.07 H 787.172 Z" /><path
         id="path16"
         style="fill:#fcd213;fill-opacity:1;fill-rule:evenodd;stroke:none"
         d="m 1552.39,2288.01 c -99.43,0 -195.08,-16.4 -284.26,-46.74 l -107.56,184.96 c -0.57,1.6 -1.47,3.57 -0.48,5.27 1.14,1.88 1.08,2.68 7.15,2.68 6.05,0.03 44.21,-1.68 46.67,-1.94 3.45,-0.36 6.15,-1.84 6.55,-7.15 0.4,-5.4 1.33,-33.45 1.33,-35.58 -0.16,-5.48 7.22,-8.76 10.09,-0.74 3.33,9.42 9.24,24.44 10.15,27.34 2.13,6.51 5.94,4.71 13.72,0.1 l 28.78,-15.96 c 1.63,-0.89 2.3,-2.2 0.9,-8.74 -1.31,-6.68 -5.48,-30.26 -6.31,-33.39 -0.9,-3.14 -1.23,-5.14 -7.71,-3.81 -6.48,1.28 -25.68,5.81 -27.71,5.81 -2.14,-0.09 -6.91,-0.26 -5.84,-6.24 7.37,-16.26 24.76,-28.54 41.26,-33.42 27.81,-8.31 56.59,1.4 74.15,24.17 9.35,13.26 13.82,28.88 13.22,45.81 -0.24,2.81 -0.67,6.01 -3.44,7.54 -1.23,0.43 -2.8,0.81 -3.87,-0.43 -4.17,-4.71 -6.14,-10.75 -10.88,-15.29 -6.01,-5.64 -15.03,-7.34 -23.08,-5.31 -15.18,5.41 -20.33,21.57 -20.49,36.79 0.47,8.75 3.61,16.89 11.15,22.2 6.21,4.78 16.66,5.28 23.37,1.31 5.91,-2.41 10.25,-8.45 16.99,-8.55 2.47,-0.07 5.51,3.8 2.3,7.68 -5.07,6.31 -23.8,23.27 -25.7,47.07 -1.6,21.4 6.18,40.23 17.89,50.55 1,1 2.31,1.93 5.28,0.96 18.1,-6.14 34.52,-27.41 37.56,-48.37 3.04,-21 -5.64,-40.43 -6.91,-43.43 -1.2,-3.07 0.26,-7.02 2.97,-7.62 2.54,-0.26 4.44,1.27 5.98,3.31 5.61,7.75 11.58,18.76 22.23,19.63 10.02,1.31 18.46,-3.47 24.21,-11.62 6.47,-10.58 9.91,-26.21 4.27,-38.39 -3.44,-8.22 -11.89,-13.39 -20.43,-13.63 -9.75,-1.03 -16.33,5.88 -23.71,10.69 -1.4,0.97 -3.27,0.5 -4.44,-0.4 -3.1,-3.14 -0.8,-7.88 0.33,-11.15 9.45,-23.78 33.46,-42.87 59.5,-43.44 29.92,-1.83 57.66,14.76 70.61,41.6 3.44,7.99 6.65,16.33 6.18,25.81 0,1.5 -1.24,3.1 -2.74,3.84 -6.04,1.1 -9.98,-4.44 -14.59,-7.28 l -18.8,-14.12 c -0.96,-0.53 -2.53,-0.81 -3.73,-0.27 -9.12,10.35 -17.33,21.67 -25.38,32.72 -0.8,1.27 -1.13,3.1 -0.23,4.41 7.11,11.22 15.16,21.8 23.2,32.54 1.14,1.62 2.7,3.05 4.68,2.17 11.25,-7.2 21.56,-16.35 33.15,-22.36 1.57,-0.74 8.68,1 5.34,7.51 -3.37,6.51 -15.26,23.5 -17.46,27.44 -2.24,3.95 -5.04,6.65 -1,9.45 4,2.75 33.15,23.01 34.12,23.78 0.67,0.5 1.97,0.73 3.04,0 0.9,-0.74 30.11,-21.04 34.12,-23.78 3.94,-2.8 1.23,-5.5 -0.97,-9.45 -2.23,-3.93 -14.13,-20.93 -17.5,-27.44 -3.43,-6.51 3.78,-8.25 5.35,-7.51 11.55,6.01 21.9,15.15 33.05,22.36 1.97,0.88 3.6,-0.56 4.78,-2.17 8.04,-10.74 16.05,-21.32 23.19,-32.54 0.84,-1.31 0.57,-3.14 -0.23,-4.41 -8.04,-11.05 -16.26,-22.37 -25.44,-32.72 -1.16,-0.54 -2.7,-0.27 -3.77,0.27 l -18.7,14.12 c -4.6,2.85 -8.61,8.38 -14.62,7.28 -1.47,-0.73 -2.7,-2.34 -2.7,-3.84 -0.5,-9.48 2.7,-17.83 6.14,-25.81 12.89,-26.84 40.7,-43.43 70.64,-41.6 25.95,0.57 50.05,19.66 59.5,43.44 1.14,3.27 3.37,8.01 0.33,11.15 -1.23,0.9 -3.04,1.37 -4.51,0.4 -7.3,-4.81 -13.89,-11.72 -23.63,-10.69 -8.61,0.24 -17.1,5.41 -20.54,13.63 -5.57,12.18 -2.13,27.81 4.38,38.39 5.64,8.15 14.08,12.92 24.2,11.62 10.59,-0.87 16.66,-11.88 22.14,-19.63 1.64,-2.03 3.44,-3.57 6.07,-3.31 2.71,0.61 4.18,4.54 2.94,7.62 -1.3,3 -9.98,22.43 -6.87,43.43 3.04,20.97 19.36,42.23 37.56,48.37 2.86,0.97 4.17,0.04 5.24,-0.96 11.65,-10.31 19.46,-29.15 17.83,-50.55 -1.81,-23.8 -20.5,-40.76 -25.68,-47.07 -3.1,-3.87 -0.17,-7.75 2.37,-7.68 6.71,0.1 10.98,6.14 16.9,8.55 6.74,3.97 17.22,3.47 23.36,-1.31 7.66,-5.3 10.76,-13.45 11.16,-22.2 -0.14,-15.22 -5.31,-31.38 -20.5,-36.79 -7.95,-2.03 -17.06,-0.33 -23.04,5.31 -4.78,4.54 -6.74,10.58 -10.91,15.29 -1.08,1.24 -2.55,0.86 -3.85,0.43 -2.73,-1.53 -3.13,-4.74 -3.47,-7.54 -0.57,-16.92 3.88,-32.55 13.22,-45.81 17.64,-22.77 46.41,-32.49 74.25,-24.17 16.49,4.88 33.78,17.16 41.26,33.42 1.07,5.98 -3.77,6.15 -5.85,6.24 -2.02,0.01 -21.32,-4.54 -27.7,-5.81 -6.5,-1.33 -6.84,0.67 -7.71,3.81 -0.89,3.14 -5,26.71 -6.41,33.39 -1.39,6.54 -0.73,7.84 1.01,8.74 l 28.76,15.96 c 7.72,4.61 11.56,6.41 13.62,-0.1 0.98,-2.9 6.82,-17.93 10.25,-27.34 2.88,-8.01 10.19,-4.74 10.12,0.74 0.01,2.13 0.81,30.17 1.2,35.58 0.5,5.31 3.14,6.78 6.65,7.15 2.47,0.27 40.53,1.97 46.6,1.94 6.18,0 6.08,-0.81 7.12,-2.68 1,-1.7 0.2,-3.67 -0.47,-5.27 l -107.47,-184.96 c -89.23,30.34 -184.82,46.74 -284.34,46.74" /><path
         id="path18"
         style="fill:#fcd213;fill-opacity:1;fill-rule:evenodd;stroke:none"
         d="m 1552.39,2631.72 c 27.07,0 48.97,-21.93 48.97,-48.98 0,-26.97 -21.9,-48.87 -48.97,-48.87 -26.98,0 -48.88,21.9 -48.88,48.87 0,27.05 21.9,48.98 48.88,48.98" /><path
         id="path20"
         style="fill:#fcd213;fill-opacity:1;fill-rule:evenodd;stroke:none"
         d="m 1171.35,2551.33 c 21.67,0 39.17,-17.56 39.17,-39.17 0,-21.59 -17.5,-39.12 -39.17,-39.12 -21.6,0 -39.13,17.52 -39.13,39.12 0,21.61 17.53,39.16 39.13,39.17" /><path
         id="path22"
         style="fill:#fcd213;fill-opacity:1;fill-rule:evenodd;stroke:none"
         d="m 1218.19,2650.85 c 21.63,0 39.16,-17.53 39.16,-39.16 0.01,-21.6 -17.53,-39.1 -39.16,-39.1 -21.6,0 -39.13,17.5 -39.13,39.1 0,21.64 17.53,39.16 39.13,39.16" /><path
         id="path24"
         style="fill:#fcd213;fill-opacity:1;fill-rule:evenodd;stroke:none"
         d="m 1329.44,2684.04 c 21.67,0 39.19,-17.53 39.19,-39.16 0,-21.6 -17.53,-39.1 -39.2,-39.1 -21.57,0 -39.09,17.5 -39.09,39.1 0,21.63 17.52,39.16 39.1,39.16" /><path
         id="path26"
         style="fill:#fcd213;fill-opacity:1;fill-rule:evenodd;stroke:none"
         d="m 1438.74,2635.27 c 21.67,0 39.19,-17.57 39.19,-39.17 0,-21.6 -17.52,-39.13 -39.19,-39.13 -21.56,0 -39.13,17.53 -39.13,39.13 0,21.6 17.57,39.16 39.13,39.17" /><path
         id="path28"
         style="fill:#fcd213;fill-opacity:1;fill-rule:evenodd;stroke:none"
         d="m 1940.43,2551.33 c -21.67,0 -39.2,-17.56 -39.2,-39.17 0.01,-21.59 17.53,-39.12 39.2,-39.12 21.6,0 39.09,17.52 39.09,39.12 0,21.61 -17.49,39.16 -39.09,39.17" /><path
         id="path30"
         style="fill:#fcd213;fill-opacity:1;fill-rule:evenodd;stroke:none"
         d="m 1893.59,2650.85 c -21.67,0 -39.2,-17.53 -39.2,-39.16 0,-21.6 17.53,-39.1 39.2,-39.1 21.56,0 39.09,17.5 39.09,39.1 0,21.64 -17.53,39.16 -39.09,39.16" /><path
         id="path32"
         style="fill:#fcd213;fill-opacity:1;fill-rule:evenodd;stroke:none"
         d="m 1782.32,2684.04 c -21.64,0 -39.17,-17.53 -39.17,-39.16 0.01,-21.6 17.53,-39.1 39.17,-39.1 21.6,0 39.13,17.5 39.13,39.1 0,21.63 -17.53,39.16 -39.13,39.16" /><path
         id="path34"
         style="fill:#fcd213;fill-opacity:1;fill-rule:evenodd;stroke:none"
         d="m 1673.04,2635.27 c -21.66,0 -39.19,-17.57 -39.19,-39.17 0.01,-21.6 17.53,-39.13 39.19,-39.13 21.57,0 39.1,17.53 39.1,39.13 0,21.6 -17.53,39.16 -39.1,39.17" /><path
         id="path36"
         style="fill:#fcd213;fill-opacity:1;fill-rule:evenodd;stroke:none"
         d="m 1579.87,2774.48 -12.46,-46.37 v -0.3 c 12.95,3.24 25.78,7.74 38.8,11.42 v -54.76 c -13.02,3.74 -25.85,8.19 -38.8,11.49 v -0.27 l 12.79,-47.98 c -8.45,3.71 -17.87,5.61 -27.81,5.61 -9.85,0 -19.27,-1.9 -27.82,-5.61 l 12.8,47.98 v 0.27 c -12.86,-3.3 -25.65,-7.75 -38.7,-11.49 v 54.76 c 13.05,-3.67 25.84,-8.19 38.7,-11.42 v 0.3 l -12.36,46.37 h 54.86" /><path
         id="path38"
         style="fill:#fcd213;fill-opacity:1;fill-rule:evenodd;stroke:none"
         d="m 1483.75,2091.6 c 18.79,9.01 36.98,20.2 55.75,29.28 l 27.44,-42.83 -2.33,-1.18 -273.16,-143.42 c -1.65,46.27 -12.03,91.21 -48.59,123.96 -23.16,18.47 -55.92,29.68 -87.13,19.33 -17.86,-6.54 -37,-22.07 -38.9,-40.36 -2.07,-13.66 3.5,-25.42 10.65,-35.7 16.69,6.92 37.42,11.79 57.12,7.75 27.68,-5.04 55.33,-26.24 65.4,-50.85 14.83,-33.85 3.71,-72.98 -21.2,-99.25 -29.87,-29.58 -75.88,-38.9 -117.95,-26.88 -49.71,14.53 -82.36,62.2 -84.43,108.2 -6.24,86.88 56.66,165.73 141.02,201.06 66.44,29.38 163.8,39.26 232.47,7.88 30.95,-12.16 59.57,-32.86 83.84,-56.99 z m -241.32,22.53 c 45.14,-16.59 80.39,-60.33 91.98,-100.93 l 99.16,51.99 c -47.48,49.48 -122.43,64.7 -191.14,48.94 z m -160.25,-128.2 c -8.42,-28.34 -5.14,-62.4 13.82,-85.54 16.49,-19.96 42.4,-29.18 68.9,-22.9 17.43,5.28 32.59,19.7 35.86,36.16 2.8,15.76 -2.74,30.88 -16.16,40.53 -12.02,9.05 -31.68,10.08 -45.57,3.84 -8.51,-4.21 -14.79,-12.63 -19.6,-19.13 -19.66,9.84 -31.95,27.94 -37.25,47.04" /><path
         id="path40"
         style="fill:#fcd213;fill-opacity:1;fill-rule:evenodd;stroke:none"
         d="m 1963.63,2110.43 c 16.42,-31.75 9.39,-72.68 10.58,-109.28 l -16.52,-8.71 -215.3,-112.85 v -0.03 110.78 c -1.16,14.29 -3.27,28.81 -16.96,38.49 -17.59,13.06 -46.67,5.04 -63.73,-3.57 v -241.78 0.63 l 133.54,67.94 c 39.83,19.76 94.67,28.78 135.54,5.04 40.73,-21.46 53.15,-61.56 51.81,-103 l -1.36,-98.85 -179.91,-94.45 -0.91,-0.3 c 61.73,-20.2 130.63,-48.15 162.52,-108.08 31.22,-60.5 10.39,-142.1 21.46,-208.54 5.15,-33.59 20.77,-64.04 43.14,-91.15 l 1.8,0.94 54.22,28.51 27.29,-43.4 -190.78,-100.16 -85.29,-44.805 c -50.41,58.285 -93.12,120.395 -95.02,197.315 l -1.33,63.3 0.9,152.17 c -1.84,30.07 -2.8,61.85 -32.59,79.95 -13.18,7.75 -31.68,7.74 -45.03,1.2 v -195.26 c -90.15,-1.94 -176.52,-23.37 -237.32,-88.48 -16.89,-17.49 -30.71,-36.05 -43.27,-54.88 -38.05,17.43 -93.81,21.03 -132.17,1.47 -31.05,-15.63 -51.78,-44.81 -46.58,-77.79 4.88,-35.32 44.94,-62.44 80.53,-69.65 82.53,-14.486 176.85,0 225.23,68.31 l 7.14,12.89 c -28.6,20.17 -39.8,51.48 -33.32,83.86 6.51,35.06 43.67,67.91 82.13,73.92 40.67,7.68 80.66,-3.94 107.74,-33.12 27.51,-27.57 32.85,-73.58 17.59,-108.1 -36.35,-83.47 -135.08,-120.859 -221.98,-139.09 -109.38,-22.172 -227.49,-15.027 -324.88,25.371 -61.54,26.519 -116.79,82.669 -121,145.429 -7.14,78.47 43,145.3 115.66,185.09 45.6,24.98 97.38,40.13 151.53,46.68 v 195.47 h -151.34 c -0.46,59.85 24.81,122.12 88.61,148.83 19.7,7.15 40.53,11.55 62.73,12.19 v 166.43 l 89.88,45.94 287.23,150.77 117.41,61.6 c 38.16,19.56 96.48,30.38 136.87,7.24 18.27,-9.04 35.66,-25.24 43.51,-42.43 z M 1858.4,2115 c -40.66,-4.17 -73.18,-26.68 -107.36,-43.93 46.94,-16.6 48.81,-64.38 47.47,-104.97 l 120.45,63.26 c -0.63,22.04 3.27,46.14 -9.48,64.24 -11.52,15.76 -30.32,22.47 -51.08,21.4 z m -253.46,-360.1 v 240.37 l -77.16,-40.25 V 1714.57 Z M 1472,1447.67 v 477.69 l -124.87,-66.29 -2.47,-0.81 V 1671.9 c -30.92,-0.87 -61.97,2.53 -89.05,-6.28 -25,-8.01 -46.73,-31.78 -49.27,-55.29 h 138.32 v -228.91 z m 393.38,372.86 c -43.5,-5.44 -77.95,-31.38 -115.15,-49.48 28.42,-10.08 46.18,-37.16 46.18,-64.46 l 0.2,-90.61 0.44,0.3 129.16,67.67 1.06,45.77 c -0.89,23.74 3.07,49.35 -9.65,68.91 -12.01,15.99 -31.24,23.74 -52.24,21.9 z M 1661.7,1725.52 V 1544.5 l 78.42,41.87 0.63,79.45 c -1.16,20.34 2.71,42.87 -10.92,58.63 -16.62,19.13 -49.9,12.02 -68.13,1.07 z m -56.76,-28.65 -77.16,-40.29 v -238.62 l -104.33,-54.04 c 63.21,-5.27 124.36,-21.23 181.48,-38.66 z m 130.2,-169.84 -0.6,-1.03 c 43.84,-18.7 57.76,-61.6 59.8,-102.37 v -166.47 l 0.9,-55.49 c 1.17,-53.42 21.87,-100.76 56.75,-141.16 l 125.53,65.97 c -31.22,42.47 -50.71,89.48 -52.31,143.1 l -0.17,93.28 c -1.17,24.17 -2.11,48.41 -13.49,68.59 -37.59,60.9 -111.87,76.66 -176.41,95.58 z m -262.68,-219.46 c -97.82,19.1 -211.34,16.82 -295.7,-27.11 -55.69,-27.71 -101.53,-79.46 -98.49,-139.36 0,-47.54 40.89,-88.34 85.57,-109.51 -12.09,16.37 -16.7,35.53 -16.7,56.36 -0.46,24.78 8.75,44.54 22.67,64.51 44.64,53.34 117.76,70.84 189.14,55.68 31.18,42.48 79.76,79.4 130.4,95.69 z m 124.47,-113.05 c -20.88,2.48 -40.27,-4.2 -52.55,-19.77 -9.45,-12.48 -11.99,-32.64 -2.98,-46.07 7.68,-15.09 25.01,-22.5 41.9,-24.17 -5.8,-28.37 -25.77,-52.35 -46.94,-73.78 29.31,12.42 59.63,26.31 81.13,52.95 20.4,23.97 34.46,59.89 16.43,88.34 -9.28,11.96 -22.24,20.37 -36.99,22.5" /><path
         id="path42"
         style="fill:#ffffff;fill-opacity:1;fill-rule:evenodd;stroke:none"
         d="M 1051.06,3.89844 C 1007.92,13.3828 983.883,37.4844 966.625,60.7188 958.879,71.2031 846.332,241.742 809.539,297.496 l 0.004,-210.5976 c 0,-30.5195 -0.504,-52.2187 24.84,-69.1132 v -1.5977 h -85.004 v 1.5977 c 25.305,16.8945 25.305,38.5937 25.305,69.1132 V 310.449 c 0,30.457 -6.407,45.805 -31.246,62.168 v 1.602 h 89.41 v -0.531 L 1016.67,92.9766 V 304.043 c 0,30.445 0.5,52.211 -24.842,68.574 v 1.602 h 84.072 v -1.602 c -24.84,-16.355 -24.84,-38.129 -24.84,-68.578 V 3.89844" /><path
         id="path44"
         style="fill:#ffffff;fill-opacity:1;fill-rule:evenodd;stroke:none"
         d="M 682.375,200.078 C 682.375,89.3711 601.844,9.10547 506.961,9.10547 412.574,9.10938 332.918,86.1602 332.918,197.402 c 0,103.102 78.687,189.371 178.781,186.633 100.129,0.535 170.676,-86.203 170.676,-183.957 z m -285.223,-3.605 c 0,-81.063 39.965,-154.7855 112.61,-154.7855 66.879,0 108.109,69.8435 108.109,154.7815 0,87.14 -41.937,157.183 -108.976,157.183 -68.211,0 -111.747,-67.773 -111.743,-157.179" /><path
         id="path46"
         style="fill:#ffffff;fill-opacity:1;fill-rule:evenodd;stroke:none"
         d="M 1378.98,46.6328 V 132.77 c 0,25.039 -3.14,49.41 -27.61,59.226 v 1.606 h 86.37 V 21.6641 c -27.18,-6.9493 -81.2,-14.82816 -105.63,-14.2266 -15.3,0.40234 -185.9,-0.13672 -184.97,184.2925 0.87,167.997 141.5,187.899 173.72,188.895 30.91,0.941 75.35,-3.605 104.69,-17.629 v -68.371 h -1.63 c -22.74,33.324 -47.88,56.625 -98.7,56.625 -36.26,0 -113.34,-34.121 -113.34,-161.059 0,-29.64 6.38,-111.3082 73.95,-141.359 12.89,-5.7382 58.56,-18.9609 93.15,-2.1992" /><path
         id="path48"
         style="fill:#ffffff;fill-opacity:1;fill-rule:evenodd;stroke:none"
         d="M 3037.55,46.6328 V 132.77 c 0,25.039 -3.13,49.41 -27.64,59.226 v 1.606 h 86.41 V 21.6641 c -27.18,-6.9493 -81.2,-14.82816 -105.64,-14.2266 -15.36,0.40234 -185.9,-0.13672 -184.96,184.2925 0.87,167.997 141.49,187.899 173.67,188.895 30.92,0.941 75.39,-3.605 104.71,-17.629 v -68.371 h -1.6 c -22.78,33.324 -47.89,56.625 -98.7,56.625 -36.32,0 -113.32,-34.121 -113.32,-161.059 0,-29.64 6.35,-111.3082 73.93,-141.359 12.88,-5.7382 58.55,-18.9609 93.14,-2.1992" /><path
         id="path50"
         style="fill:#ffffff;fill-opacity:1;fill-rule:evenodd;stroke:none"
         d="m 1529.69,109.398 c 21.13,-37.855 59.35,-71.4488 96.21,-68.3746 37.43,3.1368 62.37,29.7774 62.37,69.6446 0,78.996 -153.41,64.234 -152.14,174.406 0.96,78.668 71.28,100.231 118.12,100.231 20.2,0.004 51.75,-4.68 71.34,-12.489 l -2.23,-64.964 -0.63,-0.34 c -28.25,41.203 -46.68,49.215 -76.46,49.215 -26.98,0 -54.62,-23.176 -54.62,-54.422 0,-83.063 154.48,-60.231 154.48,-184.559 0,-68.5741 -60.37,-107.6405 -126.31,-107.6405 -10.67,0 -54.15,3.9375 -82.86,18.4257 l -8.01,80.5388 0.74,0.328" /><path
         id="path52"
         style="fill:#ffffff;fill-opacity:1;fill-rule:evenodd;stroke:none"
         d="m 2092.14,123.02 c 0,-41.9966 -24.21,-72.5825 -60.8,-90.0786 -38.19,-18.5625 -81.33,-16.8945 -122.26,-16.8945 l -86.86,0.0039 v 1.668 c 27.3,10.3476 24.03,50.2109 24.03,75.25 V 298.5 c 0,24.57 3.8,64.43 -24.04,74.785 l 0.01,1.606 h 124.85 c 72.08,0 116.75,-28.918 116.75,-77.461 0,-36.59 -23.84,-59.563 -75.91,-78.258 36.52,-6.406 104.23,-22.84 104.23,-96.152 z M 1903.8,342.57 V 46.4336 c 46.65,-8.8125 126.67,-1.2695 125.57,77.5194 -0.64,43.008 -31.15,75.254 -105.14,75.453 l 10.56,26.711 c 23.64,5.61 67.71,14.422 67.71,67.571 0,46.148 -60.34,61.371 -98.7,48.882" /><path
         id="path54"
         style="fill:#ffffff;fill-opacity:1;fill-rule:evenodd;stroke:none"
         d="m 2385.86,312.254 h -1.54 c -12.49,16.16 -26.65,45.141 -130.94,31.516 V 230.457 h 102.69 v -54.352 h -1.6 c -8.68,15.758 -31.59,24.5 -48.41,24.5 l -52.68,0.008 V 47.5742 c 131.54,-15.6953 152.04,35.7149 161.58,48.5352 l 2.81,0.0039 -24.64,-79.3242 h -225.61 v 1.5976 c 27.96,14.4883 27.69,44.2695 27.69,68.711 l 0.01,216.6093 c 0,24.977 0.06,58.895 -27.7,69.242 v 1.606 h 218.34 v -62.301" /><path
         id="path56"
         style="fill:#ffffff;fill-opacity:1;fill-rule:evenodd;stroke:none"
         d="m 2795.91,16.7891 h -49.09 c -18.29,0.9297 -42.13,0.2617 -71.57,36.5195 -29.45,36.2578 -96.29,134.2144 -96.29,134.2144 l 13.42,25.039 c 35,9.215 66.31,28.774 66.31,75.317 0,35.191 -30.99,56.426 -67.44,57.762 -13.02,0.535 -20.77,0.664 -33.26,-1.536 V 92.9062 c 1.13,-27.5742 -4.74,-64.7031 23.04,-74.5195 v -1.5976 h -106.1 v 1.5976 c 27.64,13.2188 22.23,48.1406 23.9,74.5195 V 300.504 c -1.67,27.109 3.81,62.098 -23.9,72.445 v 1.606 h 129.4 c 79.67,0 114.78,-38.067 114.78,-87.473 0,-47.875 -37.39,-73.387 -82.86,-86.004 41.67,-57.09 114.38,-166.5975 159.59,-183.4296 l 0.07,-0.8593" /><path
         id="path58"
         style="fill:#ffffff;fill-opacity:1;fill-rule:evenodd;stroke:none"
         d="m 326.34,18.3203 v -1.668 h -55.988 c -26.676,0 -47.981,11.3477 -65.739,35.6563 L 99.8164,208.488 188.352,303.773 c 27.246,29.25 38,57.157 0.234,69.446 v 1.601 h 103.133 v -0.531 L 155.438,225.52 C 197.234,166.688 275.727,39.2188 326.34,18.3203" /><path
         id="path60"
         style="fill:#ffffff;fill-opacity:1;fill-rule:evenodd;stroke:none"
         d="m 27.6641,298.637 c 0,24.504 3.2382,64.23 -24.50785,74.582 v 1.601 H 110.262 v -1.601 C 82.4883,363.402 85.7578,323.133 85.7578,298.633 V 93.4414 c 0,-25.0391 -3.2773,-64.8398 24.5042,-75.1211 v -1.668 H 3.15625 v 1.668 C 30.9023,28.6016 27.6641,68.9336 27.6641,93.4414 V 298.637" /></g></g></svg>