<?xml version="1.0" encoding="UTF-8" standalone="no"?>
<!-- Generator: Adobe Illustrator 15.0.0, SVG Export Plug-In . SVG Version: 6.00 Build 0)  -->

<svg
   xmlns:dc="http://purl.org/dc/elements/1.1/"
   xmlns:cc="http://creativecommons.org/ns#"
   xmlns:rdf="http://www.w3.org/1999/02/22-rdf-syntax-ns#"
   xmlns:svg="http://www.w3.org/2000/svg"
   xmlns="http://www.w3.org/2000/svg"
   xmlns:sodipodi="http://sodipodi.sourceforge.net/DTD/sodipodi-0.dtd"
   xmlns:inkscape="http://www.inkscape.org/namespaces/inkscape"
   version="1.1"
   x="0px"
   y="0px"
   width="112.13899"
   height="130.5755"
   viewBox="0 0 112.139 130.57551"
   enable-background="new 0 0 203.333 209.333"
   xml:space="preserve"
   id="svg2"
   inkscape:version="0.48.4 r9939"
   sodipodi:docname="logo-ascend-under.svg"><metadata
     id="metadata107"><rdf:RDF><cc:Work
         rdf:about=""><dc:format>image/svg+xml</dc:format><dc:type
           rdf:resource="http://purl.org/dc/dcmitype/StillImage" /></cc:Work></rdf:RDF></metadata><defs
     id="defs105" /><sodipodi:namedview
     pagecolor="#ffffff"
     bordercolor="#666666"
     borderopacity="1"
     objecttolerance="10"
     gridtolerance="10"
     guidetolerance="10"
     inkscape:pageopacity="0"
     inkscape:pageshadow="2"
     inkscape:window-width="1549"
     inkscape:window-height="876"
     id="namedview103"
     showgrid="false"
     fit-margin-top="0"
     fit-margin-left="0"
     fit-margin-right="0"
     fit-margin-bottom="0"
     inkscape:zoom="1.1273904"
     inkscape:cx="57.466498"
     inkscape:cy="54.701001"
     inkscape:window-x="51"
     inkscape:window-y="24"
     inkscape:window-maximized="1"
     inkscape:current-layer="svg2" /><g
     id="Backgrounds"
     display="none"
     style="display:none"
     transform="translate(-44.2,-28.792)"><rect
       id="Dark_background"
       width="203.33299"
       height="209.33299"
       x="0"
       y="0"
       style="fill:#292424" /><rect
       id="Light_background"
       width="203.33299"
       height="209.33299"
       x="0"
       y="0"
       style="fill:#ffffff" /></g><g
     id="Layer_1"
     transform="translate(-44.2,-28.792)"><g
       id="Text"><g
         id="NTNU"
         display="none"
         style="display:none"><polygon
           display="inline"
           points="136.616,173.779 135.405,173.779 132.953,169.694 132.927,169.7 132.927,172.926 133.577,173.05 133.577,173.779 131.063,173.779 131.063,173.05 131.71,172.926 131.71,168.569 131.063,168.444 131.063,167.71 131.71,167.71 132.927,167.71 135.378,171.795 135.405,171.792 135.405,168.569 134.755,168.444 134.755,167.71 136.616,167.71 137.267,167.71 137.267,168.444 136.616,168.569 "
           id="polygon10"
           style="fill:#c49a6c;display:inline" /><polygon
           display="inline"
           points="142.232,168.647 141.115,168.647 141.115,172.926 141.766,173.05 141.766,173.779 139.249,173.779 139.249,173.05 139.899,172.926 139.899,168.647 138.785,168.647 138.736,169.327 137.807,169.327 137.807,167.71 143.216,167.71 143.216,169.327 142.283,169.327 "
           id="polygon12"
           style="fill:#c49a6c;display:inline" /><polygon
           display="inline"
           points="149.379,173.779 148.167,173.779 145.715,169.694 145.688,169.7 145.688,172.926 146.339,173.05 146.339,173.779 143.826,173.779 143.826,173.05 144.472,172.926 144.472,168.569 143.826,168.444 143.826,167.71 144.472,167.71 145.688,167.71 148.14,171.795 148.167,171.792 148.167,168.569 147.517,168.444 147.517,167.71 149.379,167.71 150.028,167.71 150.028,168.444 149.379,168.569 "
           id="polygon14"
           style="fill:#c49a6c;display:inline" /><path
           display="inline"
           d="m 153.077,167.71 v 0.734 l -0.65,0.125 v 3.168 c 0,0.399 0.106,0.699 0.323,0.897 0.215,0.2 0.51,0.298 0.887,0.298 0.378,0 0.679,-0.097 0.894,-0.295 0.217,-0.196 0.326,-0.497 0.326,-0.9 v -3.168 l -0.646,-0.125 v -0.734 h 2.514 v 0.734 l -0.65,0.125 v 3.168 c 0,0.681 -0.225,1.207 -0.673,1.575 -0.449,0.37 -1.037,0.555 -1.764,0.555 -0.727,0 -1.313,-0.185 -1.759,-0.555 -0.446,-0.368 -0.669,-0.895 -0.669,-1.575 v -3.168 l -0.646,-0.125 v -0.734 h 0.646 1.218 0.649 z"
           id="path16"
           inkscape:connector-curvature="0"
           style="fill:#c49a6c;display:inline" /></g><g
         id="aerial_robotics_team"
         display="none"
         style="display:none"><path
           display="inline"
           d="m 47.019,173.779 c -0.033,-0.074 -0.062,-0.151 -0.086,-0.23 -0.025,-0.08 -0.045,-0.159 -0.059,-0.239 -0.144,0.167 -0.32,0.301 -0.527,0.403 -0.206,0.103 -0.444,0.154 -0.711,0.154 -0.441,0 -0.793,-0.12 -1.052,-0.36 -0.259,-0.239 -0.39,-0.567 -0.39,-0.98 0,-0.424 0.17,-0.75 0.508,-0.981 0.341,-0.23 0.837,-0.346 1.493,-0.346 h 0.622 v -0.44 c 0,-0.217 -0.063,-0.386 -0.188,-0.505 -0.126,-0.12 -0.311,-0.181 -0.555,-0.181 -0.139,0 -0.263,0.017 -0.372,0.048 -0.107,0.032 -0.195,0.072 -0.262,0.115 l -0.079,0.483 h -0.917 l 0.004,-1 c 0.221,-0.149 0.476,-0.277 0.764,-0.379 0.288,-0.104 0.602,-0.154 0.939,-0.154 0.559,0 1.013,0.136 1.361,0.411 0.349,0.272 0.523,0.662 0.523,1.168 v 1.863 c 0,0.069 0.001,0.135 0.003,0.197 0.001,0.061 0.006,0.118 0.014,0.174 l 0.372,0.05 v 0.729 h -1.405 z m -1.054,-0.812 c 0.183,0 0.35,-0.04 0.5,-0.118 0.15,-0.08 0.267,-0.18 0.35,-0.299 v -0.688 h -0.622 c -0.259,0 -0.455,0.061 -0.588,0.182 -0.133,0.121 -0.2,0.268 -0.2,0.436 0,0.153 0.05,0.272 0.148,0.359 0.1,0.085 0.236,0.128 0.412,0.128"
           id="path19"
           inkscape:connector-curvature="0"
           style="fill:#726658;display:inline" /><path
           display="inline"
           d="m 51.21,173.867 c -0.65,0 -1.17,-0.208 -1.56,-0.624 -0.389,-0.419 -0.583,-0.947 -0.583,-1.589 v -0.166 c 0,-0.671 0.185,-1.223 0.552,-1.655 0.368,-0.435 0.862,-0.649 1.482,-0.646 0.609,0 1.082,0.184 1.417,0.55 0.336,0.367 0.504,0.862 0.504,1.489 v 0.66 h -2.693 l -0.007,0.026 c 0.022,0.298 0.121,0.542 0.297,0.733 0.177,0.192 0.417,0.287 0.72,0.287 0.27,0 0.493,-0.027 0.672,-0.081 0.177,-0.053 0.371,-0.14 0.583,-0.256 l 0.329,0.75 c -0.187,0.148 -0.428,0.271 -0.723,0.371 -0.297,0.1 -0.627,0.151 -0.99,0.151 m -0.109,-3.743 c -0.224,0 -0.403,0.085 -0.532,0.258 -0.132,0.173 -0.212,0.399 -0.242,0.68 l 0.012,0.021 h 1.492 v -0.108 c 0,-0.259 -0.061,-0.466 -0.181,-0.62 -0.122,-0.155 -0.305,-0.231 -0.549,-0.231"
           id="path21"
           inkscape:connector-curvature="0"
           style="fill:#726658;display:inline" /><path
           display="inline"
           d="m 53.903,173.05 0.583,-0.124 v -2.798 l -0.647,-0.125 v -0.732 h 1.781 l 0.053,0.657 c 0.106,-0.233 0.243,-0.415 0.409,-0.546 0.167,-0.13 0.359,-0.195 0.579,-0.195 0.064,0 0.132,0.005 0.202,0.014 0.071,0.01 0.13,0.022 0.177,0.036 l -0.129,1.108 -0.5,-0.013 c -0.177,0 -0.324,0.035 -0.441,0.104 -0.117,0.069 -0.207,0.169 -0.267,0.296 v 2.193 l 0.583,0.124 v 0.729 h -2.384 v -0.728 z"
           id="path23"
           inkscape:connector-curvature="0"
           style="fill:#726658;display:inline" /><path
           display="inline"
           d="m 57.581,173.05 0.587,-0.124 v -2.798 l -0.65,-0.125 v -0.732 h 1.868 v 3.655 l 0.582,0.124 v 0.729 h -2.387 v -0.729 z m 1.805,-4.86 h -1.218 v -0.914 h 1.218 v 0.914 z"
           id="path25"
           inkscape:connector-curvature="0"
           style="fill:#726658;display:inline" /><path
           display="inline"
           d="m 63.455,173.779 c -0.033,-0.074 -0.062,-0.151 -0.088,-0.23 -0.024,-0.08 -0.044,-0.159 -0.058,-0.239 -0.146,0.167 -0.322,0.301 -0.528,0.403 -0.206,0.102 -0.444,0.154 -0.711,0.154 -0.442,0 -0.792,-0.12 -1.053,-0.36 -0.259,-0.239 -0.39,-0.567 -0.39,-0.98 0,-0.424 0.171,-0.75 0.509,-0.981 0.339,-0.23 0.837,-0.346 1.492,-0.346 h 0.622 v -0.44 c 0,-0.217 -0.062,-0.386 -0.188,-0.505 -0.124,-0.12 -0.309,-0.181 -0.553,-0.181 -0.14,0 -0.264,0.017 -0.372,0.048 -0.109,0.032 -0.195,0.072 -0.262,0.115 l -0.08,0.483 h -0.917 l 0.004,-1 c 0.223,-0.149 0.477,-0.277 0.766,-0.379 0.286,-0.104 0.6,-0.154 0.939,-0.154 0.558,0 1.013,0.136 1.361,0.411 0.349,0.272 0.523,0.662 0.523,1.168 v 1.863 c 0,0.069 0,0.135 10e-4,0.197 0.001,0.061 0.006,0.118 0.015,0.174 l 0.371,0.05 v 0.729 H 63.455 z M 62.4,172.967 c 0.183,0 0.35,-0.04 0.5,-0.118 0.15,-0.08 0.267,-0.18 0.351,-0.299 v -0.688 h -0.622 c -0.258,0 -0.454,0.061 -0.587,0.182 -0.133,0.121 -0.2,0.268 -0.2,0.436 0,0.153 0.048,0.272 0.147,0.359 0.098,0.085 0.236,0.128 0.411,0.128"
           id="path27"
           inkscape:connector-curvature="0"
           style="fill:#726658;display:inline" /><polygon
           display="inline"
           points="67.224,172.926 67.812,173.05 67.812,173.779 65.419,173.779 65.419,173.05 66.007,172.926 66.007,168.136 65.357,168.01 65.357,167.276 67.224,167.276 "
           id="polygon29"
           style="fill:#726658;display:inline" /><path
           display="inline"
           d="m 70.818,173.05 0.583,-0.124 v -2.798 l -0.645,-0.125 v -0.732 h 1.779 l 0.055,0.657 c 0.104,-0.233 0.241,-0.415 0.407,-0.546 0.167,-0.13 0.361,-0.195 0.58,-0.195 0.065,0 0.132,0.005 0.203,0.014 0.071,0.01 0.13,0.022 0.178,0.036 l -0.13,1.108 -0.5,-0.013 c -0.177,0 -0.325,0.035 -0.441,0.104 -0.116,0.069 -0.206,0.169 -0.267,0.296 v 2.193 l 0.583,0.124 v 0.729 h -2.384 v -0.728 z"
           id="path31"
           inkscape:connector-curvature="0"
           style="fill:#726658;display:inline" /><path
           display="inline"
           d="m 74.45,171.482 c 0,-0.672 0.188,-1.223 0.565,-1.652 0.377,-0.43 0.896,-0.644 1.562,-0.644 0.667,0 1.188,0.214 1.564,0.641 0.377,0.43 0.565,0.981 0.565,1.655 v 0.088 c 0,0.678 -0.188,1.231 -0.565,1.657 -0.376,0.426 -0.896,0.64 -1.557,0.64 -0.67,0 -1.192,-0.214 -1.569,-0.64 -0.378,-0.426 -0.565,-0.979 -0.565,-1.657 v -0.088 z m 1.217,0.088 c 0,0.411 0.073,0.741 0.217,0.99 0.144,0.248 0.378,0.372 0.7,0.372 0.313,0 0.544,-0.124 0.69,-0.373 0.146,-0.251 0.22,-0.581 0.22,-0.989 v -0.088 c 0,-0.399 -0.074,-0.726 -0.221,-0.979 -0.147,-0.252 -0.379,-0.379 -0.696,-0.379 -0.317,0 -0.549,0.127 -0.693,0.379 -0.144,0.254 -0.217,0.58 -0.217,0.979 v 0.088 z"
           id="path33"
           inkscape:connector-curvature="0"
           style="fill:#726658;display:inline" /><path
           display="inline"
           d="m 83.809,171.649 c 0,0.674 -0.15,1.211 -0.45,1.613 -0.3,0.402 -0.733,0.604 -1.301,0.604 -0.264,0 -0.492,-0.055 -0.688,-0.166 -0.194,-0.108 -0.358,-0.268 -0.491,-0.476 l -0.088,0.554 h -1.05 v -5.644 l -0.646,-0.126 v -0.731 h 1.858 v 2.471 c 0.13,-0.181 0.288,-0.32 0.47,-0.417 0.182,-0.098 0.391,-0.146 0.626,-0.146 0.573,0 1.01,0.215 1.31,0.647 0.3,0.433 0.45,1.01 0.45,1.728 v 0.089 z m -1.213,-0.087 c 0,-0.438 -0.065,-0.787 -0.194,-1.044 -0.129,-0.257 -0.351,-0.385 -0.661,-0.385 -0.189,0 -0.349,0.039 -0.479,0.118 -0.13,0.079 -0.233,0.191 -0.309,0.341 v 1.904 c 0.076,0.139 0.179,0.245 0.311,0.315 0.132,0.073 0.294,0.109 0.485,0.109 0.315,0 0.534,-0.11 0.66,-0.331 0.124,-0.222 0.188,-0.534 0.188,-0.94 v -0.087 z"
           id="path35"
           inkscape:connector-curvature="0"
           style="fill:#726658;display:inline" /><path
           display="inline"
           d="m 84.584,171.482 c 0,-0.672 0.188,-1.223 0.566,-1.652 0.378,-0.429 0.896,-0.644 1.561,-0.644 0.667,0 1.188,0.214 1.564,0.641 0.377,0.43 0.565,0.981 0.565,1.655 v 0.088 c 0,0.678 -0.188,1.231 -0.565,1.657 -0.376,0.426 -0.896,0.64 -1.557,0.64 -0.67,0 -1.191,-0.214 -1.569,-0.64 -0.378,-0.426 -0.566,-0.979 -0.566,-1.657 v -0.088 z m 1.218,0.088 c 0,0.411 0.073,0.741 0.216,0.99 0.144,0.248 0.379,0.372 0.701,0.372 0.313,0 0.544,-0.124 0.689,-0.373 0.146,-0.251 0.22,-0.581 0.22,-0.989 v -0.088 c 0,-0.399 -0.074,-0.726 -0.221,-0.979 -0.147,-0.252 -0.379,-0.379 -0.696,-0.379 -0.316,0 -0.549,0.127 -0.693,0.379 -0.144,0.254 -0.216,0.58 -0.216,0.979 v 0.088 z"
           id="path37"
           inkscape:connector-curvature="0"
           style="fill:#726658;display:inline" /><path
           display="inline"
           d="m 91.38,168.165 v 1.105 h 0.793 v 0.854 H 91.38 v 2.297 c 0,0.175 0.036,0.3 0.109,0.375 0.071,0.073 0.17,0.113 0.292,0.113 0.082,0 0.155,-0.005 0.218,-0.011 0.062,-0.008 0.132,-0.02 0.211,-0.036 l 0.103,0.881 c -0.136,0.04 -0.27,0.072 -0.403,0.092 -0.133,0.021 -0.279,0.032 -0.434,0.032 -0.42,0 -0.743,-0.115 -0.97,-0.346 -0.226,-0.232 -0.34,-0.596 -0.34,-1.096 v -2.302 h -0.663 v -0.854 h 0.663 v -1.105 h 1.214 z"
           id="path39"
           inkscape:connector-curvature="0"
           style="fill:#726658;display:inline" /><path
           display="inline"
           d="m 92.945,173.05 0.588,-0.124 v -2.798 l -0.65,-0.125 v -0.732 h 1.867 v 3.655 l 0.583,0.124 v 0.729 h -2.389 v -0.729 z m 1.805,-4.86 h -1.217 v -0.914 h 1.217 v 0.914 z"
           id="path41"
           inkscape:connector-curvature="0"
           style="fill:#726658;display:inline" /><path
           display="inline"
           d="m 98.063,172.933 c 0.217,0 0.391,-0.063 0.521,-0.188 0.131,-0.126 0.196,-0.296 0.196,-0.506 h 1.101 l 0.014,0.024 c 0.011,0.455 -0.161,0.838 -0.514,1.144 -0.352,0.308 -0.791,0.461 -1.317,0.461 -0.671,0 -1.19,-0.212 -1.554,-0.639 -0.364,-0.424 -0.547,-0.969 -0.547,-1.637 v -0.125 c 0,-0.665 0.188,-1.21 0.561,-1.64 0.374,-0.427 0.908,-0.641 1.599,-0.641 0.364,0 0.691,0.055 0.979,0.162 0.29,0.109 0.531,0.261 0.723,0.46 l 0.015,1.202 h -0.988 l -0.2,-0.702 c -0.061,-0.054 -0.137,-0.098 -0.225,-0.133 -0.088,-0.034 -0.191,-0.052 -0.305,-0.052 -0.344,0 -0.588,0.125 -0.729,0.375 -0.143,0.252 -0.214,0.572 -0.214,0.968 v 0.125 c 0,0.402 0.067,0.727 0.197,0.974 0.131,0.246 0.36,0.368 0.687,0.368"
           id="path43"
           inkscape:connector-curvature="0"
           style="fill:#726658;display:inline" /><path
           display="inline"
           d="m 104.339,170.82 h -0.816 l -0.131,-0.562 c -0.083,-0.066 -0.188,-0.122 -0.313,-0.167 -0.127,-0.045 -0.267,-0.066 -0.421,-0.066 -0.212,0 -0.384,0.048 -0.508,0.143 -0.124,0.097 -0.188,0.217 -0.188,0.36 0,0.138 0.061,0.251 0.179,0.341 0.12,0.091 0.359,0.17 0.717,0.24 0.56,0.11 0.975,0.274 1.243,0.489 0.27,0.216 0.405,0.513 0.405,0.89 0,0.406 -0.175,0.737 -0.523,0.995 -0.349,0.256 -0.808,0.385 -1.377,0.385 -0.348,0 -0.668,-0.051 -0.957,-0.153 -0.292,-0.101 -0.55,-0.245 -0.775,-0.435 l -0.011,-1.013 h 0.85 l 0.167,0.588 c 0.073,0.061 0.171,0.105 0.295,0.135 0.126,0.028 0.257,0.044 0.393,0.044 0.248,0 0.436,-0.044 0.565,-0.134 0.13,-0.089 0.193,-0.209 0.193,-0.361 0,-0.133 -0.065,-0.248 -0.196,-0.347 -0.13,-0.098 -0.371,-0.183 -0.721,-0.258 -0.531,-0.108 -0.931,-0.269 -1.203,-0.482 -0.271,-0.213 -0.406,-0.502 -0.406,-0.868 0,-0.378 0.156,-0.704 0.467,-0.979 0.311,-0.272 0.755,-0.41 1.33,-0.41 0.351,0 0.682,0.049 0.994,0.143 0.312,0.094 0.559,0.215 0.735,0.361 l 0.013,1.121 z"
           id="path45"
           inkscape:connector-curvature="0"
           style="fill:#726658;display:inline" /><path
           display="inline"
           d="m 109.368,168.165 v 1.105 h 0.793 v 0.854 h -0.793 v 2.297 c 0,0.175 0.037,0.3 0.109,0.375 0.07,0.073 0.168,0.113 0.291,0.113 0.084,0 0.156,-0.005 0.218,-0.011 0.062,-0.008 0.134,-0.02 0.211,-0.036 l 0.104,0.881 c -0.137,0.04 -0.271,0.072 -0.403,0.092 -0.133,0.021 -0.278,0.032 -0.435,0.032 -0.42,0 -0.743,-0.115 -0.969,-0.346 -0.228,-0.232 -0.34,-0.596 -0.34,-1.096 v -2.302 h -0.663 v -0.854 h 0.663 v -1.105 h 1.214 z"
           id="path47"
           inkscape:connector-curvature="0"
           style="fill:#726658;display:inline" /><path
           display="inline"
           d="m 113.13,173.867 c -0.65,0 -1.171,-0.208 -1.561,-0.624 -0.39,-0.419 -0.584,-0.947 -0.584,-1.589 v -0.166 c 0,-0.671 0.184,-1.223 0.554,-1.655 0.366,-0.435 0.861,-0.649 1.48,-0.646 0.609,0 1.082,0.184 1.418,0.55 0.336,0.367 0.505,0.862 0.505,1.489 v 0.66 h -2.692 l -0.01,0.026 c 0.021,0.298 0.122,0.542 0.298,0.733 0.178,0.192 0.417,0.287 0.72,0.287 0.27,0 0.493,-0.027 0.672,-0.081 0.178,-0.053 0.371,-0.14 0.583,-0.256 l 0.329,0.75 c -0.187,0.148 -0.428,0.271 -0.723,0.371 -0.298,0.1 -0.626,0.151 -0.989,0.151 m -0.11,-3.743 c -0.225,0 -0.403,0.085 -0.533,0.258 -0.131,0.173 -0.21,0.399 -0.24,0.68 l 0.012,0.021 h 1.49 v -0.108 c 0,-0.259 -0.061,-0.466 -0.18,-0.62 -0.122,-0.155 -0.305,-0.231 -0.549,-0.231"
           id="path49"
           inkscape:connector-curvature="0"
           style="fill:#726658;display:inline" /><path
           display="inline"
           d="m 118.603,173.779 c -0.033,-0.074 -0.062,-0.151 -0.088,-0.23 -0.024,-0.08 -0.044,-0.159 -0.058,-0.239 -0.146,0.167 -0.319,0.301 -0.527,0.403 -0.206,0.103 -0.444,0.154 -0.711,0.154 -0.441,0 -0.793,-0.12 -1.053,-0.36 -0.261,-0.239 -0.389,-0.567 -0.389,-0.98 0,-0.424 0.17,-0.75 0.507,-0.981 0.341,-0.23 0.838,-0.346 1.492,-0.346 h 0.622 v -0.44 c 0,-0.217 -0.062,-0.386 -0.188,-0.505 -0.124,-0.12 -0.31,-0.181 -0.553,-0.181 -0.14,0 -0.263,0.017 -0.372,0.048 -0.109,0.032 -0.196,0.072 -0.263,0.115 l -0.078,0.483 h -0.918 l 0.004,-1 c 0.223,-0.149 0.478,-0.277 0.766,-0.379 0.286,-0.104 0.602,-0.154 0.939,-0.154 0.558,0 1.013,0.136 1.361,0.411 0.349,0.272 0.522,0.662 0.522,1.168 v 1.863 c 0,0.069 0,0.135 0.003,0.197 0.002,0.061 0.006,0.118 0.015,0.174 l 0.371,0.05 v 0.729 h -1.404 z m -1.055,-0.812 c 0.183,0 0.35,-0.04 0.5,-0.118 0.15,-0.08 0.267,-0.18 0.351,-0.299 v -0.688 h -0.622 c -0.258,0 -0.453,0.061 -0.586,0.182 -0.135,0.121 -0.201,0.268 -0.201,0.436 0,0.153 0.051,0.272 0.148,0.359 0.098,0.085 0.235,0.128 0.41,0.128"
           id="path51"
           inkscape:connector-curvature="0"
           style="fill:#726658;display:inline" /><path
           display="inline"
           d="m 120.492,170.003 v -0.732 h 1.779 l 0.049,0.596 c 0.146,-0.218 0.326,-0.384 0.546,-0.502 0.217,-0.118 0.469,-0.178 0.755,-0.178 0.29,0 0.539,0.063 0.743,0.19 0.204,0.13 0.361,0.321 0.467,0.581 0.14,-0.242 0.319,-0.433 0.541,-0.566 0.223,-0.137 0.483,-0.205 0.783,-0.205 0.446,0 0.796,0.154 1.055,0.46 0.255,0.308 0.385,0.774 0.385,1.403 v 1.876 l 0.588,0.124 v 0.729 h -2.331 v -0.729 l 0.526,-0.124 v -1.881 c 0,-0.341 -0.055,-0.579 -0.168,-0.713 -0.11,-0.133 -0.275,-0.199 -0.495,-0.199 -0.173,0 -0.322,0.037 -0.449,0.115 -0.125,0.075 -0.228,0.182 -0.301,0.317 0,0.054 10e-4,0.1 0.004,0.136 0.002,0.037 0.003,0.075 0.003,0.115 v 2.109 l 0.493,0.124 v 0.729 h -2.198 v -0.729 l 0.493,-0.124 v -1.881 c 0,-0.334 -0.056,-0.569 -0.168,-0.706 -0.109,-0.139 -0.276,-0.206 -0.497,-0.206 -0.166,0 -0.311,0.031 -0.435,0.094 -0.122,0.062 -0.226,0.149 -0.306,0.265 v 2.435 l 0.525,0.124 v 0.729 h -2.326 v -0.729 l 0.588,-0.124 v -2.798 l -0.649,-0.125 z"
           id="path53"
           inkscape:connector-curvature="0"
           style="fill:#726658;display:inline" /></g><g
         id="ascend"><path
           d="m 59.356,156.19 c -1.439,2.113 -3.588,3.168 -6.443,3.168 -2.592,0 -4.703,-0.9 -6.336,-2.699 -1.584,-1.777 -2.377,-3.973 -2.377,-6.588 0,-2.617 0.793,-4.812 2.377,-6.588 1.633,-1.801 3.805,-2.701 6.516,-2.701 2.713,0 4.801,1.068 6.264,3.205 v -2.916 h 2.701 v 18 h -2.701 v -2.881 z m -6.084,0.721 c 1.945,0 3.48,-0.672 4.609,-2.016 1.08,-1.273 1.619,-2.881 1.619,-4.824 0,-1.945 -0.539,-3.553 -1.619,-4.824 -1.129,-1.344 -2.664,-2.016 -4.609,-2.016 -1.92,0 -3.479,0.672 -4.68,2.016 -1.127,1.271 -1.691,2.879 -1.691,4.824 0,1.943 0.564,3.551 1.691,4.824 1.201,1.344 2.76,2.016 4.68,2.016"
           id="path56"
           inkscape:connector-curvature="0"
           style="fill:#c49a6c" /><path
           d="m 76.42,145.896 c -0.24,-1.873 -1.746,-2.809 -4.518,-2.809 -2.773,0 -4.158,0.863 -4.158,2.592 0,0.721 0.293,1.266 0.881,1.639 0.588,0.371 1.326,0.678 2.215,0.918 0.887,0.24 1.854,0.461 2.898,0.666 1.043,0.203 2.01,0.492 2.896,0.863 0.889,0.373 1.627,0.883 2.215,1.531 0.588,0.646 0.883,1.535 0.883,2.664 0,1.752 -0.662,3.09 -1.98,4.014 -1.32,0.924 -3.109,1.385 -5.365,1.385 -2.398,0 -4.307,-0.6 -5.723,-1.799 -1.297,-1.057 -1.992,-2.438 -2.088,-4.141 h 2.807 c 0.168,1.656 1.104,2.771 2.809,3.348 0.625,0.193 1.242,0.289 1.854,0.289 0.613,0 1.182,-0.037 1.711,-0.109 0.527,-0.07 1.043,-0.203 1.547,-0.395 1.152,-0.457 1.729,-1.236 1.729,-2.34 0,-0.744 -0.293,-1.314 -0.881,-1.711 -0.588,-0.397 -1.328,-0.721 -2.213,-0.973 -0.891,-0.252 -1.855,-0.479 -2.9,-0.684 -1.043,-0.203 -2.01,-0.486 -2.898,-0.846 -0.887,-0.359 -1.625,-0.852 -2.213,-1.477 -0.588,-0.623 -0.883,-1.488 -0.883,-2.592 0,-1.631 0.594,-2.898 1.783,-3.797 1.188,-0.9 2.945,-1.352 5.273,-1.352 2.207,0 3.947,0.529 5.221,1.584 1.055,0.889 1.668,2.064 1.836,3.529 H 76.42 z"
           id="path58"
           inkscape:connector-curvature="0"
           style="fill:#c49a6c" /><path
           d="m 90.604,156.911 c 1.152,0 2.172,-0.324 3.061,-0.973 0.887,-0.648 1.537,-1.486 1.943,-2.52 h 2.916 c -0.553,1.777 -1.561,3.203 -3.023,4.283 -1.537,1.104 -3.361,1.656 -5.471,1.656 -2.643,0 -4.789,-0.9 -6.445,-2.699 -1.609,-1.752 -2.412,-3.949 -2.412,-6.588 0,-2.641 0.803,-4.836 2.412,-6.588 1.656,-1.801 3.803,-2.701 6.445,-2.701 2.109,0 3.934,0.553 5.471,1.656 1.463,1.08 2.471,2.508 3.023,4.283 h -2.916 c -0.406,-1.029 -1.057,-1.871 -1.943,-2.52 -0.889,-0.648 -1.908,-0.971 -3.061,-0.971 -1.15,0 -2.131,0.18 -2.934,0.539 -0.805,0.359 -1.482,0.852 -2.033,1.477 -1.178,1.295 -1.764,2.904 -1.764,4.824 0,1.92 0.586,3.527 1.764,4.824 1.199,1.346 2.856,2.018 4.967,2.018"
           id="path60"
           inkscape:connector-curvature="0"
           style="fill:#c49a6c" /><path
           d="m 110.965,156.558 c 2.32,-0.701 3.695,-2.168 4.125,-4.402 l 2.826,-0.852 c -0.127,1.742 -0.693,3.291 -1.701,4.646 -1.006,1.357 -2.533,2.346 -4.578,2.961 -2.598,0.783 -4.971,0.559 -7.121,-0.674 -2.092,-1.197 -3.517,-3.061 -4.279,-5.59 -0.77,-2.551 -0.646,-4.881 0.373,-6.992 1.088,-2.209 2.919,-3.701 5.494,-4.477 2.572,-0.777 4.924,-0.545 7.053,0.693 2.014,1.197 3.406,3.07 4.176,5.621 l 0.312,1.035 -14.443,4.354 c 0.662,1.529 1.688,2.648 3.08,3.357 1.421,0.726 2.982,0.831 4.683,0.32 m -4.156,-13.036 c -1.586,0.479 -2.77,1.373 -3.551,2.688 -0.727,1.246 -0.977,2.662 -0.75,4.25 l 11.721,-3.535 c -0.688,-1.447 -1.68,-2.488 -2.975,-3.125 -1.379,-0.662 -2.859,-0.756 -4.445,-0.278"
           id="path62"
           inkscape:connector-curvature="0"
           style="fill:#c49a6c" /><path
           d="m 122.822,141.071 v 2.807 c 0.648,-0.863 1.441,-1.596 2.377,-2.195 0.936,-0.599 2.004,-0.9 3.203,-0.9 1.199,0 2.232,0.168 3.098,0.504 0.863,0.336 1.619,0.84 2.268,1.512 1.488,1.465 2.232,3.398 2.232,5.797 v 10.477 h -2.701 v -10.404 c 0,-1.656 -0.467,-2.975 -1.404,-3.961 -0.936,-0.982 -2.148,-1.475 -3.635,-1.475 -1.514,0 -2.797,0.504 -3.854,1.512 -1.057,1.031 -1.584,2.352 -1.584,3.959 v 10.369 h -2.699 v -18 h 2.699 z"
           id="path64"
           inkscape:connector-curvature="0"
           style="fill:#c49a6c" /><path
           d="m 153.639,156.19 c -1.439,2.113 -3.588,3.168 -6.443,3.168 -2.594,0 -4.705,-0.9 -6.336,-2.699 -1.584,-1.777 -2.377,-3.973 -2.377,-6.588 0,-2.617 0.793,-4.812 2.377,-6.588 1.631,-1.801 3.803,-2.701 6.516,-2.701 2.711,0 4.799,1.068 6.264,3.205 V 133.87 h 2.699 v 25.201 h -2.699 v -2.881 z m -6.084,0.721 c 1.943,0 3.479,-0.672 4.607,-2.016 1.08,-1.273 1.621,-2.881 1.621,-4.824 0,-1.945 -0.541,-3.553 -1.621,-4.824 -1.129,-1.344 -2.664,-2.016 -4.607,-2.016 -1.92,0 -3.48,0.672 -4.68,2.016 -1.129,1.271 -1.693,2.879 -1.693,4.824 0,1.943 0.564,3.551 1.693,4.824 1.199,1.344 2.76,2.016 4.68,2.016"
           id="path66"
           inkscape:connector-curvature="0"
           style="fill:#c49a6c" /></g></g><g
       id="Logo"><path
         d="m 126.498,94.264 c -2.756,-1.282 -4.281,-1.405 -5.934,-0.722 L 65.76,118.048 c -1.689,0.797 -2.868,2.016 -2.868,5.58 v 7.312 l 71.665,-32.587 c 0.037,-0.015 0.064,-0.027 0.098,-0.043 -0.001,0 -5.876,-2.983 -8.157,-4.046 z"
         id="path69"
         inkscape:connector-curvature="0"
         style="fill:#f3bb37" /><path
         d="m 137.648,96.271 -0.012,-8.505 c 0,-1.863 -1.115,-3.576 -2.904,-4.464 L 67.767,50.126 c 0,1.468 0,4.637 0,8.482 0,1.864 1.115,3.577 2.904,4.465 l 66.977,33.198 z"
         id="path71"
         inkscape:connector-curvature="0"
         style="fill:#f09b36" /><path
         d="M 137.633,80.996 65.794,45.204 c -1.788,-0.886 -2.904,-2.6 -2.904,-4.463 v -0.005 -8.497 l 71.842,35.673 c 1.789,0.887 2.9,2.599 2.9,4.463 0.001,3.847 0.001,6.48 0.001,8.621"
         id="path73"
         inkscape:connector-curvature="0"
         style="fill:#d5562b" /><path
         d="M 134.793,52.554 86.867,28.792 v 8.322 c 0,1.824 1.09,3.501 2.84,4.368 l 47.926,23.858 c 0.004,-1.703 0,-4.653 0,-8.417 0,-1.823 -1.09,-3.501 -2.84,-4.369"
         id="path75"
         inkscape:connector-curvature="0"
         style="fill:#b55232" /></g><g
       id="ascend_mini"
       display="none"
       style="display:none"><path
         display="inline"
         d="m 73.722,152.822 c -0.934,1.371 -2.327,2.056 -4.179,2.056 -1.682,0 -3.051,-0.585 -4.11,-1.752 -1.027,-1.152 -1.542,-2.576 -1.542,-4.273 0,-1.697 0.515,-3.122 1.542,-4.272 1.06,-1.169 2.468,-1.753 4.227,-1.753 1.76,0 3.114,0.693 4.063,2.079 v -1.892 h 1.752 v 11.676 h -1.752 v -1.869 z m -3.947,0.468 c 1.262,0 2.258,-0.437 2.99,-1.308 0.701,-0.826 1.05,-1.868 1.05,-3.13 0,-1.262 -0.35,-2.305 -1.05,-3.13 -0.732,-0.871 -1.729,-1.307 -2.99,-1.307 -1.245,0 -2.257,0.436 -3.036,1.307 -0.731,0.825 -1.097,1.868 -1.097,3.13 0,1.262 0.366,2.304 1.097,3.13 0.78,0.872 1.791,1.308 3.036,1.308"
         id="path78"
         inkscape:connector-curvature="0"
         style="fill:#c49a6c;display:inline" /><path
         display="inline"
         d="m 84.792,146.144 c -0.156,-1.215 -1.133,-1.821 -2.93,-1.821 -1.799,0 -2.698,0.561 -2.698,1.682 0,0.467 0.19,0.82 0.572,1.062 0.381,0.24 0.86,0.439 1.437,0.595 0.575,0.156 1.203,0.299 1.88,0.434 0.677,0.131 1.304,0.318 1.879,0.56 0.576,0.241 1.055,0.572 1.437,0.993 0.381,0.419 0.572,0.995 0.572,1.728 0,1.137 -0.429,2.005 -1.285,2.604 -0.856,0.599 -2.017,0.898 -3.48,0.898 -1.555,0 -2.793,-0.391 -3.712,-1.168 -0.841,-0.686 -1.292,-1.58 -1.354,-2.686 h 1.821 c 0.109,1.074 0.716,1.798 1.822,2.171 0.406,0.126 0.806,0.188 1.203,0.188 0.398,0 0.767,-0.024 1.11,-0.071 0.342,-0.046 0.676,-0.132 1.003,-0.256 0.748,-0.297 1.122,-0.803 1.122,-1.518 0,-0.482 -0.19,-0.853 -0.571,-1.11 -0.382,-0.257 -0.862,-0.468 -1.436,-0.631 -0.578,-0.164 -1.204,-0.311 -1.881,-0.443 -0.677,-0.132 -1.304,-0.315 -1.88,-0.549 -0.575,-0.232 -1.054,-0.553 -1.436,-0.957 -0.381,-0.405 -0.573,-0.967 -0.573,-1.682 0,-1.058 0.385,-1.88 1.157,-2.464 0.771,-0.583 1.911,-0.876 3.421,-0.876 1.431,0 2.56,0.344 3.386,1.027 0.684,0.576 1.082,1.339 1.191,2.289 h -1.777 z"
         id="path80"
         inkscape:connector-curvature="0"
         style="fill:#c49a6c;display:inline" /><path
         display="inline"
         d="m 93.992,153.29 c 0.748,0 1.409,-0.21 1.985,-0.631 0.576,-0.421 0.998,-0.965 1.261,-1.635 h 1.892 c -0.358,1.153 -1.012,2.077 -1.961,2.779 -0.998,0.715 -2.181,1.074 -3.549,1.074 -1.714,0 -3.106,-0.585 -4.181,-1.752 -1.044,-1.137 -1.565,-2.562 -1.565,-4.273 0,-1.713 0.521,-3.137 1.565,-4.272 1.074,-1.169 2.467,-1.753 4.181,-1.753 1.368,0 2.551,0.358 3.549,1.074 0.949,0.7 1.603,1.627 1.961,2.779 h -1.892 c -0.263,-0.669 -0.685,-1.215 -1.261,-1.636 -0.576,-0.42 -1.237,-0.629 -1.985,-0.629 -0.747,0 -1.383,0.117 -1.903,0.35 -0.521,0.232 -0.961,0.553 -1.318,0.957 -0.764,0.841 -1.145,1.885 -1.145,3.13 0,1.245 0.38,2.288 1.145,3.13 0.777,0.872 1.852,1.308 3.221,1.308"
         id="path82"
         inkscape:connector-curvature="0"
         style="fill:#c49a6c;display:inline" /><path
         display="inline"
         d="m 107.2,153.061 c 1.505,-0.455 2.396,-1.407 2.675,-2.855 l 1.834,-0.553 c -0.082,1.13 -0.45,2.135 -1.104,3.014 -0.652,0.881 -1.644,1.521 -2.97,1.921 -1.685,0.509 -3.225,0.362 -4.62,-0.437 -1.356,-0.777 -2.281,-1.986 -2.775,-3.627 -0.499,-1.654 -0.419,-3.166 0.242,-4.536 0.706,-1.433 1.894,-2.399 3.563,-2.903 1.669,-0.504 3.194,-0.353 4.575,0.45 1.306,0.776 2.209,1.992 2.709,3.646 l 0.203,0.672 -9.37,2.824 c 0.43,0.992 1.095,1.719 1.998,2.178 0.923,0.468 1.936,0.538 3.04,0.206 m -2.696,-8.457 c -1.029,0.311 -1.797,0.891 -2.304,1.743 -0.472,0.809 -0.633,1.728 -0.486,2.757 l 7.603,-2.292 c -0.445,-0.939 -1.089,-1.615 -1.93,-2.028 -0.895,-0.43 -1.855,-0.49 -2.883,-0.18"
         id="path84"
         inkscape:connector-curvature="0"
         style="fill:#c49a6c;display:inline" /><path
         display="inline"
         d="m 114.892,143.015 v 1.821 c 0.421,-0.561 0.935,-1.036 1.542,-1.425 0.606,-0.39 1.3,-0.584 2.077,-0.584 0.777,0 1.448,0.108 2.01,0.326 0.56,0.218 1.05,0.545 1.471,0.981 0.966,0.949 1.448,2.205 1.448,3.761 v 6.795 h -1.752 v -6.749 c 0,-1.074 -0.303,-1.93 -0.911,-2.569 -0.606,-0.638 -1.395,-0.956 -2.358,-0.956 -0.981,0 -1.813,0.326 -2.499,0.98 -0.686,0.669 -1.027,1.525 -1.027,2.567 v 6.727 h -1.751 v -11.676 h 1.75 z"
         id="path86"
         inkscape:connector-curvature="0"
         style="fill:#c49a6c;display:inline" /><path
         display="inline"
         d="m 134.882,152.822 c -0.934,1.371 -2.328,2.056 -4.181,2.056 -1.682,0 -3.052,-0.585 -4.11,-1.752 -1.027,-1.152 -1.542,-2.576 -1.542,-4.273 0,-1.697 0.515,-3.122 1.542,-4.272 1.059,-1.169 2.468,-1.753 4.228,-1.753 1.759,0 3.112,0.693 4.063,2.079 v -6.563 h 1.75 v 16.348 h -1.75 v -1.87 z m -3.946,0.468 c 1.26,0 2.256,-0.437 2.987,-1.308 0.702,-0.826 1.053,-1.868 1.053,-3.13 0,-1.262 -0.351,-2.305 -1.053,-3.13 -0.731,-0.871 -1.728,-1.307 -2.987,-1.307 -1.246,0 -2.259,0.436 -3.036,1.307 -0.732,0.825 -1.099,1.868 -1.099,3.13 0,1.262 0.366,2.304 1.099,3.13 0.777,0.872 1.789,1.308 3.036,1.308"
         id="path88"
         inkscape:connector-curvature="0"
         style="fill:#c49a6c;display:inline" /></g><g
       id="ascend_mega"
       display="none"
       style="display:none"><path
         display="inline"
         d="m 54.666,157.281 c -1.604,2.355 -3.999,3.53 -7.181,3.53 -2.889,0 -5.242,-1.003 -7.062,-3.008 -1.765,-1.98 -2.649,-4.428 -2.649,-7.342 0,-2.917 0.884,-5.363 2.649,-7.343 1.82,-2.007 4.24,-3.01 7.262,-3.01 3.023,0 5.351,1.19 6.981,3.571 v -3.249 h 3.01 v 20.061 h -3.01 v -3.21 z m -6.781,0.804 c 2.168,0 3.879,-0.749 5.137,-2.247 1.204,-1.419 1.804,-3.21 1.804,-5.376 0,-2.168 -0.601,-3.96 -1.804,-5.377 -1.258,-1.497 -2.969,-2.246 -5.137,-2.246 -2.14,0 -3.876,0.749 -5.215,2.246 -1.256,1.417 -1.885,3.209 -1.885,5.377 0,2.166 0.629,3.957 1.885,5.376 1.338,1.498 3.075,2.247 5.215,2.247"
         id="path91"
         inkscape:connector-curvature="0"
         style="fill:#c49a6c;display:inline" /><path
         display="inline"
         d="m 73.684,145.808 c -0.268,-2.087 -1.946,-3.13 -5.035,-3.13 -3.091,0 -4.634,0.962 -4.634,2.889 0,0.803 0.327,1.41 0.982,1.826 0.655,0.413 1.478,0.755 2.468,1.022 0.988,0.269 2.066,0.515 3.23,0.743 1.162,0.226 2.24,0.548 3.228,0.962 0.99,0.416 1.813,0.983 2.468,1.706 0.655,0.721 0.984,1.711 0.984,2.97 0,1.952 -0.738,3.443 -2.207,4.473 -1.472,1.029 -3.465,1.543 -5.979,1.543 -2.673,0 -4.8,-0.668 -6.378,-2.004 -1.445,-1.178 -2.22,-2.717 -2.327,-4.615 h 3.128 c 0.187,1.846 1.229,3.089 3.13,3.731 0.697,0.215 1.384,0.322 2.066,0.322 0.684,0 1.317,-0.042 1.907,-0.122 0.588,-0.079 1.162,-0.227 1.724,-0.44 1.284,-0.509 1.926,-1.378 1.926,-2.607 0,-0.829 -0.327,-1.465 -0.982,-1.906 -0.655,-0.442 -1.48,-0.804 -2.466,-1.084 -0.992,-0.281 -2.068,-0.534 -3.232,-0.763 -1.162,-0.226 -2.24,-0.542 -3.23,-0.942 -0.988,-0.4 -1.811,-0.949 -2.466,-1.646 -0.655,-0.694 -0.984,-1.658 -0.984,-2.889 0,-1.817 0.662,-3.229 1.987,-4.231 1.324,-1.003 3.283,-1.506 5.877,-1.506 2.459,0 4.399,0.59 5.818,1.765 1.175,0.991 1.859,2.301 2.046,3.934 h -3.049 z"
         id="path93"
         inkscape:connector-curvature="0"
         style="fill:#c49a6c;display:inline" /><path
         display="inline"
         d="m 89.491,158.085 c 1.284,0 2.42,-0.361 3.411,-1.084 0.988,-0.723 1.713,-1.657 2.166,-2.809 h 3.25 c -0.616,1.981 -1.739,3.57 -3.37,4.773 -1.713,1.23 -3.746,1.846 -6.097,1.846 -2.945,0 -5.337,-1.003 -7.183,-3.008 -1.793,-1.952 -2.688,-4.401 -2.688,-7.342 0,-2.943 0.895,-5.39 2.688,-7.343 1.846,-2.007 4.238,-3.01 7.183,-3.01 2.351,0 4.384,0.616 6.097,1.846 1.63,1.204 2.753,2.795 3.37,4.773 h -3.25 c -0.453,-1.147 -1.178,-2.085 -2.166,-2.808 -0.991,-0.723 -2.127,-1.082 -3.411,-1.082 -1.282,0 -2.375,0.2 -3.27,0.601 -0.896,0.4 -1.652,0.949 -2.266,1.646 -1.312,1.443 -1.965,3.237 -1.965,5.377 0,2.14 0.653,3.931 1.965,5.376 1.337,1.499 3.183,2.248 5.536,2.248"
         id="path95"
         inkscape:connector-curvature="0"
         style="fill:#c49a6c;display:inline" /><path
         display="inline"
         d="m 112.183,157.69 c 2.586,-0.781 4.118,-2.416 4.597,-4.906 l 3.15,-0.949 c -0.142,1.941 -0.772,3.668 -1.896,5.179 -1.121,1.513 -2.823,2.614 -5.102,3.3 -2.896,0.873 -5.54,0.623 -7.937,-0.751 -2.331,-1.334 -3.92,-3.411 -4.769,-6.229 -0.858,-2.843 -0.721,-5.439 0.416,-7.793 1.212,-2.462 3.253,-4.125 6.123,-4.989 2.867,-0.866 5.487,-0.607 7.86,0.773 2.244,1.334 3.796,3.421 4.653,6.264 l 0.349,1.154 -16.097,4.852 c 0.737,1.704 1.881,2.952 3.433,3.742 1.585,0.807 3.323,0.924 5.22,0.353 m -4.632,-14.527 c -1.768,0.533 -3.087,1.53 -3.958,2.995 -0.81,1.389 -1.088,2.967 -0.836,4.736 l 13.063,-3.939 c -0.767,-1.613 -1.872,-2.773 -3.315,-3.482 -1.537,-0.739 -3.187,-0.843 -4.954,-0.31"
         id="path97"
         inkscape:connector-curvature="0"
         style="fill:#c49a6c;display:inline" /><path
         display="inline"
         d="m 125.397,140.432 v 3.128 c 0.723,-0.963 1.606,-1.778 2.649,-2.447 1.042,-0.668 2.233,-1.003 3.569,-1.003 1.337,0 2.488,0.187 3.452,0.562 0.962,0.374 1.805,0.936 2.527,1.685 1.659,1.633 2.488,3.787 2.488,6.461 v 11.676 h -3.011 v -11.596 c 0,-1.846 -0.521,-3.315 -1.565,-4.414 -1.042,-1.095 -2.394,-1.644 -4.051,-1.644 -1.687,0 -3.117,0.562 -4.294,1.685 -1.178,1.149 -1.766,2.621 -1.766,4.412 v 11.557 h -3.008 v -20.061 h 3.01 z"
         id="path99"
         inkscape:connector-curvature="0"
         style="fill:#c49a6c;display:inline" /><path
         display="inline"
         d="m 159.742,157.281 c -1.604,2.355 -3.999,3.53 -7.182,3.53 -2.891,0 -5.243,-1.003 -7.062,-3.008 -1.765,-1.98 -2.648,-4.428 -2.648,-7.342 0,-2.917 0.884,-5.363 2.648,-7.343 1.818,-2.007 4.238,-3.01 7.262,-3.01 3.021,0 5.349,1.19 6.981,3.571 v -11.275 h 3.008 v 28.087 h -3.008 v -3.21 z m -6.781,0.804 c 2.166,0 3.877,-0.749 5.135,-2.247 1.204,-1.419 1.807,-3.21 1.807,-5.376 0,-2.168 -0.603,-3.96 -1.807,-5.377 -1.258,-1.497 -2.969,-2.246 -5.135,-2.246 -2.14,0 -3.879,0.749 -5.215,2.246 -1.259,1.417 -1.888,3.209 -1.888,5.377 0,2.166 0.629,3.957 1.888,5.376 1.336,1.498 3.075,2.247 5.215,2.247"
         id="path101"
         inkscape:connector-curvature="0"
         style="fill:#c49a6c;display:inline" /></g></g></svg>